# Blender 5.1.2
# www.blender.org
mtllib arrow.mtl
o Plane
v -1.000000 0.000000 0.239043
v 1.000000 0.000000 0.239043
v -1.000000 0.000000 -0.239043
v 1.000000 0.000000 -0.239043
vn -0.0000 1.0000 -0.0000
vt 0.000000 0.000000
vt 1.000000 0.000000
vt 1.000000 1.000000
vt 0.000000 1.000000
s 0
f 1/1/1 2/2/1 4/3/1 3/4/1
o Plane.001
v 0.997569 0.000000 0.624002
v 2.050082 0.000000 0.000000
v 0.997569 0.000000 -0.624002
vn -0.0000 1.0000 -0.0000
vt 0.000000 0.000000
vt 1.000000 1.000000
vt 0.000000 1.000000
s 0
f 5/5/2 6/6/2 7/7/2
o Plane.002
v -1.000000 -100.000000 1.000000
v -1.000000 -100.000000 -1.000000
v 1.000000 -100.000000 -1.000000
vn -0.0000 1.0000 -0.0000
vt 0.000000 0.000000
vt 1.000000 1.000000
vt 0.000000 1.000000
s 0
f 8/8/3 10/9/3 9/10/3
